<?xml version="1.0" encoding="UTF-8" standalone="no"?>
<svg
   xmlns:dc="http://purl.org/dc/elements/1.1/"
   xmlns:cc="http://creativecommons.org/ns#"
   xmlns:rdf="http://www.w3.org/1999/02/22-rdf-syntax-ns#"
   xmlns:svg="http://www.w3.org/2000/svg"
   xmlns="http://www.w3.org/2000/svg"
   xmlns:sodipodi="http://sodipodi.sourceforge.net/DTD/sodipodi-0.dtd"
   xmlns:inkscape="http://www.inkscape.org/namespaces/inkscape"
   viewBox="0 0 87.731056 78.362038"
   id="Icons_Books_M"
   overflow="hidden"
   version="1.1"
   sodipodi:docname="pile-of-books.svg"
   width="87.731056"
   height="78.362038"
   inkscape:version="1.0.1 (3bc2e813f5, 2020-09-07)">
  <metadata
     id="metadata10">
    <rdf:RDF>
      <cc:Work
         rdf:about="">
        <dc:format>image/svg+xml</dc:format>
        <dc:type
           rdf:resource="http://purl.org/dc/dcmitype/StillImage" />
        <dc:title></dc:title>
      </cc:Work>
    </rdf:RDF>
  </metadata>
  <defs
     id="defs8" />
  <sodipodi:namedview
     pagecolor="#ffffff"
     bordercolor="#666666"
     borderopacity="1"
     objecttolerance="10"
     gridtolerance="10"
     guidetolerance="10"
     inkscape:pageopacity="0"
     inkscape:pageshadow="2"
     inkscape:window-width="2560"
     inkscape:window-height="1373"
     id="namedview6"
     showgrid="false"
     fit-margin-top="0"
     fit-margin-left="0"
     fit-margin-right="0"
     fit-margin-bottom="0"
     inkscape:zoom="9.1666667"
     inkscape:cx="44.730243"
     inkscape:cy="39.662035"
     inkscape:window-x="1911"
     inkscape:window-y="-9"
     inkscape:window-maximized="1"
     inkscape:current-layer="Icons_Books_M" />
  <g
     id="Icons"
     transform="translate(-3.2697566,-8.3379651)">
    <path
       d="m 90.334,65.43 -5.407,-1.918 v -9.023 l 4.347,-1.839 c 0.5088,-0.2147 0.7473,-0.8013 0.5326,-1.3101 -0.1335,-0.3163 -0.4199,-0.542 -0.7586,-0.5979 L 81.911,49.563 V 40.72 l 8.464,-3.42 c 0.5121,-0.2068 0.7596,-0.7896 0.5528,-1.3017 C 90.8204,35.7325 90.6042,35.5256 90.334,35.43 l -5.407,-1.918 v -9.023 l 4.347,-1.839 c 0.5086,-0.2152 0.7466,-0.8019 0.5314,-1.3106 C 89.6978,21.0852 89.49,20.8867 89.231,20.791 L 55.671,8.4 C 55.4549,8.32013 55.2179,8.3173 55,8.392 L 9.7,24.19 c -0.09453,0.0322 -0.18356,0.0788 -0.264,0.138 -0.129,0.1 -3.166,2.41 -3.166,9.507 -0.01223,1.6165 0.17315,3.2285 0.552,4.8 -1.179,1 -3.552,3.7 -3.552,9.2 -0.02044,3.9581 1.24698,7.8154 3.611,10.99 -0.42595,1.6353 -0.63144,3.3202 -0.611,5.01 0,7.038 3.094,9.9 3.226,10.017 0.08785,0.08 0.1895,0.1433 0.3,0.187 l 32,12.592 c 0.1167,0.0456 0.2408,0.069 0.366,0.069 0.1286,2e-4 0.2559,-0.0246 0.375,-0.073 L 90.375,67.3 c 0.5121,-0.2068 0.7596,-0.7896 0.5528,-1.3017 C 90.8204,65.7325 90.6042,65.5256 90.334,65.43 Z M 79.911,49.73 42.121,64.788 10.465,52.326 V 44.315 L 41.8,56.631 c 0.2379,0.0949 0.5031,0.0949 0.741,0 l 37.368,-15.1 z M 42.163,84.623 10.733,72.257 C 10.245,71.713 8.272,69.182 8.272,63.835 8.24327,62.1653 8.47023,60.501 8.945,58.9 9.05322,58.56 8.97205,58.188 8.732,57.924 6.46043,55.0532 5.23948,51.4916 5.272,47.831 c 0,-5.945 3.073,-7.87 3.2,-7.945 0.40016,-0.2318 0.58914,-0.7078 0.457,-1.151 -0.45252,-1.5934 -0.67279,-3.2437 -0.654,-4.9 0,-5.317 1.851,-7.414 2.269,-7.82 L 55.314,10.4 86.144,21.784 c 0.014,0 0.014,0.014 0,0.019 L 42.163,39.623 12.831,28.077 c -0.514,-0.2021 -1.0945,0.0506 -1.2966,0.5646 -0.0459,0.1167 -0.0694,0.241 -0.0694,0.3664 v 10 c 10e-5,0.4105 0.2511,0.7793 0.633,0.93 L 41.8,51.631 c 0.2379,0.0949 0.5031,0.0949 0.741,0 l 40.925,-16.54 3.69,1.333 c 0.013,0.005 0.013,0.013 0,0.019 L 42.163,54.623 9.831,41.917 C 9.31704,41.7149 8.73652,41.9677 8.53439,42.4816 8.48849,42.5983 8.46495,42.7226 8.465,42.848 v 10.16 c 9e-5,0.4105 0.2511,0.7793 0.633,0.93 l 32.659,12.856 c 0.2364,0.0936 0.4996,0.0936 0.736,0 l 38.529,-15.35 4.258,0.7 c 0.019,0 0.02,0.012 0,0.019 L 42.163,69.623 12.831,58.077 c -0.514,-0.2021 -1.0945,0.0507 -1.2966,0.5646 -0.0459,0.1167 -0.0694,0.241 -0.0694,0.3664 v 10 c 10e-5,0.4105 0.2511,0.7793 0.633,0.93 L 41.8,81.631 c 0.2379,0.0949 0.5031,0.0949 0.741,0 l 40.925,-16.54 3.69,1.333 c 0.013,0 0.013,0.013 0,0.019 z m 40.764,-51.471 -40.764,16.471 -28.7,-11.3 v -7.85 L 41.8,41.631 c 0.2379,0.0949 0.5031,0.0949 0.741,0 L 82.927,25.309 Z m 0,30 -40.764,16.471 -28.7,-11.3 v -7.85 L 41.8,71.631 c 0.2379,0.0949 0.5031,0.0949 0.741,0 L 82.927,55.309 Z"
       id="path2" />
  </g>
</svg>
