<?xml version="1.0" encoding="UTF-8" standalone="no"?>
<svg
   xmlns:dc="http://purl.org/dc/elements/1.1/"
   xmlns:cc="http://creativecommons.org/ns#"
   xmlns:rdf="http://www.w3.org/1999/02/22-rdf-syntax-ns#"
   xmlns:svg="http://www.w3.org/2000/svg"
   xmlns="http://www.w3.org/2000/svg"
   xmlns:sodipodi="http://sodipodi.sourceforge.net/DTD/sodipodi-0.dtd"
   xmlns:inkscape="http://www.inkscape.org/namespaces/inkscape"
   width="60"
   height="80"
   overflow="hidden"
   version="1.1"
   id="svg42"
   sodipodi:docname="checklist.svg"
   inkscape:version="1.0.1 (3bc2e813f5, 2020-09-07)">
  <metadata
     id="metadata46">
    <rdf:RDF>
      <cc:Work
         rdf:about="">
        <dc:format>image/svg+xml</dc:format>
        <dc:type
           rdf:resource="http://purl.org/dc/dcmitype/StillImage" />
        <dc:title></dc:title>
      </cc:Work>
    </rdf:RDF>
  </metadata>
  <sodipodi:namedview
     pagecolor="#ffffff"
     bordercolor="#666666"
     borderopacity="1"
     objecttolerance="10"
     gridtolerance="10"
     guidetolerance="10"
     inkscape:pageopacity="0"
     inkscape:pageshadow="2"
     inkscape:window-width="2560"
     inkscape:window-height="1373"
     id="namedview44"
     showgrid="false"
     fit-margin-top="0"
     fit-margin-left="0"
     fit-margin-right="0"
     fit-margin-bottom="0"
     inkscape:zoom="9.0721649"
     inkscape:cx="30"
     inkscape:cy="39.5"
     inkscape:window-x="1911"
     inkscape:window-y="-9"
     inkscape:window-maximized="1"
     inkscape:current-layer="svg42" />
  <defs
     id="defs14">
    <clipPath
       id="clip0">
      <rect
         x="18"
         y="596"
         width="98"
         height="97"
         id="rect2" />
    </clipPath>
    <clipPath
       id="clip1">
      <rect
         x="19"
         y="597"
         width="96"
         height="96"
         id="rect5" />
    </clipPath>
    <clipPath
       id="clip2">
      <rect
         x="19"
         y="597"
         width="96"
         height="96"
         id="rect8" />
    </clipPath>
    <clipPath
       id="clip3">
      <rect
         x="19"
         y="597"
         width="96"
         height="96"
         id="rect11" />
    </clipPath>
  </defs>
  <g
     clip-path="url(#clip0)"
     transform="translate(-37,-605)"
     id="g40">
    <g
       clip-path="url(#clip1)"
       id="g38">
      <g
         clip-path="url(#clip2)"
         id="g36">
        <g
           clip-path="url(#clip3)"
           id="g34">
          <path
             d="m 52,624.586 -3.293,-3.293 -1.414,1.414 4.707,4.707 9.707,-9.707 -1.414,-1.414 z"
             id="path16" />
          <path
             d="m 68,622 h 19 v 2 H 68 Z"
             id="path18" />
          <path
             d="m 52,639.586 -3.293,-3.293 -1.414,1.414 4.707,4.707 9.707,-9.707 -1.414,-1.414 z"
             id="path20" />
          <path
             d="m 68,637 h 19 v 2 H 68 Z"
             id="path22" />
          <path
             d="m 52,654.586 -3.293,-3.293 -1.414,1.414 4.707,4.707 9.707,-9.707 -1.414,-1.414 z"
             id="path24" />
          <path
             d="m 68,652 h 19 v 2 H 68 Z"
             id="path26" />
          <path
             d="m 52,669.586 -3.293,-3.293 -1.414,1.414 4.707,4.707 9.707,-9.707 -1.414,-1.414 z"
             id="path28" />
          <path
             d="m 68,667 h 19 v 2 H 68 Z"
             id="path30" />
          <path
             d="M 37,685 H 97 V 605 H 37 Z m 2,-78 h 56 v 76 H 39 Z"
             id="path32" />
        </g>
      </g>
    </g>
  </g>
</svg>
